<svg xmlns="http://www.w3.org/2000/svg" width="190.89" height="132" viewBox="0 0 190.89 132"><g transform="translate(-185 -134.276)"><path d="M196.2,372.3h-1.233v-1.394H196.2Zm2.847,8.629H196.2c-.468,1.69-1.649,2.576-3.663,2.69v-1.1c1.615,0,2.43-.836,2.43-2.772v-6.266h1.216v6.3h2.864Z" transform="translate(-4.492 -140.941)" fill="#419e43"/><path d="M211.774,372.3h-1.232v-1.394h1.232Zm1.91,8.629h-5.989V379.8h1.11a1.528,1.528,0,0,0,1.476-.672,3.487,3.487,0,0,0,.26-1.591v-4.052h1.215v4.56a3.879,3.879,0,0,1-.33,1.739h2.257Z" transform="translate(-13.518 -140.941)" fill="#419e43"/><path d="M232.037,369.617H230.8v-1.394h1.233Zm-1.163-1.821h-1.233V366.4h1.233Zm-1.111,1.821h-1.232v-1.394h1.232Zm5.815,1.182v4.56c0,1.92-.851,2.887-2.569,2.887H221.518V377.1h1.614c1.111,0,1.719-.705,1.84-2.1v-4.2h1.215v4.56a4.228,4.228,0,0,1-.3,1.673v.067h2.274c1.111,0,1.475-.509,1.475-2.248V370.8h1.215v4.56a3.88,3.88,0,0,1-.33,1.739h2.084c1.3,0,1.735-.509,1.735-2.248V370.8Z" transform="translate(-21.751 -138.259)" fill="#419e43"/><path d="M266.161,383.55v-3.462a1.7,1.7,0,0,0-.469-1.214,2.038,2.038,0,0,0-3.089.3,2.877,2.877,0,0,0-.556,1.706,3.164,3.164,0,0,0,.486,1.756,1.836,1.836,0,0,0,1.614.934Zm3.506,1.148h-2.4c-.347,1.69-1.528,2.575-3.524,2.69v-1.1h.157a2.007,2.007,0,0,0,2.117-1.591H264.13a3.047,3.047,0,0,1-2.4-1.051,3.855,3.855,0,0,1-.938-2.657,3.8,3.8,0,0,1,.99-2.674,3.291,3.291,0,0,1,2.5-1.083c1.926,0,3.124,1.115,3.124,3.281v3.051h2.256Z" transform="translate(-45.146 -144.71)" fill="#419e43"/><path d="M285.955,387.232h-1.233v-1.394h1.233Zm-2.275,0h-1.233v-1.394h1.233Zm4.183-2.51h-5.988V383.59h1.112a1.526,1.526,0,0,0,1.475-.672,3.486,3.486,0,0,0,.261-1.591v-4.052h1.215v4.56a3.879,3.879,0,0,1-.33,1.739h2.256Z" transform="translate(-57.701 -144.735)" fill="#419e43"/><path d="M300.019,369.444v7.727c0,1.92-.851,2.888-2.552,2.888h-1.51v-1.133h1.111a1.5,1.5,0,0,0,1.475-.689,3.366,3.366,0,0,0,.26-1.574v-7.219Z" transform="translate(-66.088 -140.071)" fill="#419e43"/><path d="M315.872,383.55v-3.462a1.7,1.7,0,0,0-.469-1.214,1.9,1.9,0,0,0-1.475-.574,1.92,1.92,0,0,0-1.615.869,2.88,2.88,0,0,0-.555,1.706,3.167,3.167,0,0,0,.486,1.756,1.837,1.837,0,0,0,1.615.934Zm3.506,1.148h-2.4c-.347,1.69-1.528,2.575-3.524,2.69v-1.1h.156a2.008,2.008,0,0,0,2.117-1.591h-1.891a3.049,3.049,0,0,1-2.4-1.051,3.859,3.859,0,0,1-.938-2.657,3.8,3.8,0,0,1,.99-2.674,3.291,3.291,0,0,1,2.5-1.083c1.926,0,3.124,1.115,3.124,3.281v3.051h2.256Z" transform="translate(-74.755 -144.71)" fill="#419e43"/><path d="M345.39,377.275v4.56c0,1.92-.851,2.888-2.569,2.888H331.33v-1.148h1.615c1.111,0,1.718-.7,1.839-2.1v-4.2H336v4.56a4.226,4.226,0,0,1-.3,1.673v.066h2.275c1.111,0,1.475-.509,1.475-2.248v-4.052h1.215v4.56a3.88,3.88,0,0,1-.33,1.739h2.083c1.3,0,1.736-.509,1.736-2.248v-4.052Z" transform="translate(-87.157 -144.735)" fill="#419e43"/><path d="M378.179,376.908a5.914,5.914,0,0,0,.833,3.215,3.188,3.188,0,0,0,2.864,1.542,3.148,3.148,0,0,0,2.864-1.542,5.9,5.9,0,0,0,.816-3.215v-7.464h1.215v7.694a5.9,5.9,0,0,1-1.441,4.085,4.428,4.428,0,0,1-3.454,1.558,4.548,4.548,0,0,1-3.506-1.574,5.888,5.888,0,0,1-1.406-4.069v-1.575h1.215Z" transform="translate(-114.337 -140.071)" fill="#419e43"/><path d="M410.968,380.058H409.6a2.215,2.215,0,0,1-1.58-.623,2.539,2.539,0,0,1-.747-1.986v-8.005h1.25v7.317a2.941,2.941,0,0,0,.347,1.624,1.349,1.349,0,0,0,.99.508c.121.017.26.017,1.111.017Z" transform="translate(-132.388 -140.071)" fill="#419e43"/><path d="M428.375,380.081H413.967v-1.148h10.554c.017-.2.035-.394.035-.591a4.535,4.535,0,0,0-.955-3.035,4.115,4.115,0,0,0-3.333-1.329h-3.576c.625-1.066,1.51-2.558,2.656-4.495h1.441l-2.066,3.363h1.545a5.7,5.7,0,0,1,4.2,1.542A5.43,5.43,0,0,1,426,378.424v.509h2.378Z" transform="translate(-136.377 -140.094)" fill="#419e43"/><path d="M452.5,387.232h-1.233v-1.394H452.5Zm-2.274,0h-1.233v-1.394h1.233Zm2.292-9.957v4.56c0,1.92-.851,2.887-2.552,2.887h-1.528V383.59h1.129a1.506,1.506,0,0,0,1.476-.689,3.367,3.367,0,0,0,.26-1.574v-4.052Z" transform="translate(-156.909 -144.735)" fill="#419e43"/><path d="M473.3,384.7H462.864v-1.148h6.422a6.432,6.432,0,0,0-.851-3.527,3.838,3.838,0,0,0-3.211-1.706h-.469v-1.083q5.494,0,5.781,6.316h2.76Z" transform="translate(-165.501 -144.71)" fill="#419e43"/><path d="M491.842,387.232h-1.233v-1.394h1.233Zm-2.275,0h-1.232v-1.394h1.232Zm4.184-2.51h-5.988V383.59h1.11a1.526,1.526,0,0,0,1.476-.672,3.489,3.489,0,0,0,.26-1.591v-4.052h1.216v4.56a3.88,3.88,0,0,1-.33,1.739h2.257Z" transform="translate(-180.332 -144.735)" fill="#419e43"/><path d="M510.039,384.436a3.15,3.15,0,0,0-.451-1.772,1.906,1.906,0,0,0-1.666-.8,2.034,2.034,0,0,0-1.788.869,3.264,3.264,0,0,0-.5,1.9,3.04,3.04,0,0,0,.5,1.8,2,2,0,0,0,1.719.8q2.187,0,2.187-2.805m1.406.115a3.747,3.747,0,0,1-.937,2.624,3.38,3.38,0,0,1-2.656,1.1,3.415,3.415,0,0,1-3-1.427H501.5V385.7h2.847a3.886,3.886,0,0,1-.156-1.132,3.752,3.752,0,0,1,.99-2.674,3.509,3.509,0,0,1,2.691-1.05,3.455,3.455,0,0,1,2.673,1.066,3.79,3.79,0,0,1,.9,2.641" transform="translate(-188.513 -146.861)" fill="#419e43"/><path d="M538.175,376.908a5.91,5.91,0,0,0,.833,3.215,3.187,3.187,0,0,0,2.864,1.542,3.151,3.151,0,0,0,2.865-1.542,5.916,5.916,0,0,0,.815-3.215v-7.464h1.215v7.694a5.9,5.9,0,0,1-1.44,4.085,4.431,4.431,0,0,1-3.455,1.558,4.551,4.551,0,0,1-3.507-1.574,5.888,5.888,0,0,1-1.405-4.069v-1.575h1.215Z" transform="translate(-209.634 -140.071)" fill="#419e43"/><path d="M570.965,380.058h-1.372a2.217,2.217,0,0,1-1.579-.623,2.541,2.541,0,0,1-.746-1.986v-8.005h1.25v7.317a2.941,2.941,0,0,0,.347,1.624,1.349,1.349,0,0,0,.989.508c.122.017.26.017,1.111.017Z" transform="translate(-227.686 -140.071)" fill="#419e43"/><path d="M579.975,387.216h-1.233v-1.394h1.233Zm0-9.941v4.56c0,1.92-.851,2.887-2.552,2.887H575.9V383.59h1.128a1.5,1.5,0,0,0,1.476-.689,3.364,3.364,0,0,0,.261-1.574v-4.052Z" transform="translate(-232.825 -144.735)" fill="#419e43"/><path d="M594.18,383.55v-3.462a1.7,1.7,0,0,0-.469-1.214,1.9,1.9,0,0,0-1.475-.574,1.92,1.92,0,0,0-1.615.869,2.882,2.882,0,0,0-.555,1.706,3.159,3.159,0,0,0,.486,1.756,1.834,1.834,0,0,0,1.614.934Zm3.506,1.148h-2.4c-.347,1.69-1.527,2.575-3.524,2.69v-1.1h.156a2.007,2.007,0,0,0,2.118-1.591h-1.892a3.05,3.05,0,0,1-2.4-1.051,3.858,3.858,0,0,1-.937-2.657,3.806,3.806,0,0,1,.99-2.674,3.293,3.293,0,0,1,2.5-1.083c1.927,0,3.124,1.115,3.124,3.281v3.051h2.256Z" transform="translate(-240.521 -144.71)" fill="#419e43"/><path d="M615.882,380.058h-5.988v-1.133h1.112a1.525,1.525,0,0,0,1.474-.672,3.482,3.482,0,0,0,.261-1.591v-7.219h1.216v7.727a3.872,3.872,0,0,1-.33,1.739h2.256Z" transform="translate(-253.075 -140.071)" fill="#419e43"/><path d="M630.913,387.53h-1.25v-1.394h1.25Zm4.791-4.151v1.657H623.674v-1.148h10.554c.018-.214.035-.41.035-.591,0-2.773-1.544-4.365-4.27-4.365a3.6,3.6,0,0,0-3.264,1.624c-.174-.18-.521-.508-1.058-1.017a5.313,5.313,0,0,1,4.3-1.739c3.454,0,5.728,2.165,5.728,5.578" transform="translate(-261.283 -145.048)" fill="#419e43"/><path d="M185,436.146a5.206,5.206,0,0,1,1.346-3.782,7.564,7.564,0,0,1,2.96-1.95,8.091,8.091,0,0,1,1.212-.3,6.775,6.775,0,0,1,1.122-.1,6.872,6.872,0,0,1,2.709.518,7.9,7.9,0,0,1,2.37,1.62l-1.131,1.186c-.084-.068-.174-.144-.269-.229s-.2-.172-.306-.263a8.513,8.513,0,0,0-1.507-.932,4.169,4.169,0,0,0-1.866-.424,4.42,4.42,0,0,0-3.329,1.178,4.951,4.951,0,0,0-1.39,2.6,2.8,2.8,0,0,0-.071.45c-.013.152-.019.3-.019.449a4.8,4.8,0,0,0,1.184,3.129,4.705,4.705,0,0,0,3.625,1.534h.233a3.782,3.782,0,0,0,2.637-.882,4.862,4.862,0,0,0,1.417-1.983,2.714,2.714,0,0,0,.162-.508,3.661,3.661,0,0,0,.072-.492l-4.379-.017v-1.611h6.209v1.476a5.4,5.4,0,0,1-2.064,4.052,6.826,6.826,0,0,1-4.288,1.424,6.636,6.636,0,0,1-4.711-1.712A6.042,6.042,0,0,1,185,436.162Z" transform="translate(0 -176.143)" fill="#419e43"/><rect width="1.687" height="11.886" transform="translate(199.697 254.118)" fill="#419e43"/><path d="M231.391,443.4a4.05,4.05,0,0,0,.026.448,4.635,4.635,0,0,0,.081.467,3.078,3.078,0,0,0,.772,1.4,2.364,2.364,0,0,0,1.812.636,3.222,3.222,0,0,0,1.992-.619,2.74,2.74,0,0,0,.826-2.314,2.639,2.639,0,0,0-.718-1.933,2.821,2.821,0,0,0-2.1-.729,2.44,2.44,0,0,0-1.884.661,2.875,2.875,0,0,0-.754,1.457,1.37,1.37,0,0,0-.044.272c-.006.09-.009.181-.009.271Zm-1.7,0a3.686,3.686,0,0,1,1.355-3.01,4.675,4.675,0,0,1,3.041-1.11c.108,0,.222,0,.342.008s.233.014.341.025A5.1,5.1,0,0,1,237.4,440.5a3.742,3.742,0,0,1,1.2,3.051,4.159,4.159,0,0,1-.035.526,4.576,4.576,0,0,1-.108.543,4.774,4.774,0,0,1-1.346,2.2,3.8,3.8,0,0,1-2.764.992,4.438,4.438,0,0,1-3.553-1.3,4.6,4.6,0,0,1-1.112-3.094Z" transform="translate(-26.616 -181.663)" fill="#419e43"/><path d="M256.551,430.972v7.613a3.145,3.145,0,0,0,.708,2.128,2.459,2.459,0,0,0,1.966.823,2.565,2.565,0,0,0,1.866-.645,3.013,3.013,0,0,0,.862-1.407,2.7,2.7,0,0,0,.08-.382,2.563,2.563,0,0,0,.027-.364,2.626,2.626,0,0,0-.727-2.027,2.818,2.818,0,0,0-1.606-.772c-.06,0-.119,0-.18-.008s-.12-.009-.18-.009a2.874,2.874,0,0,0-.933.135q-.394.136-.772.305l-.036.017c-.084.034-.167.071-.251.11a2.726,2.726,0,0,1-.269.11v-1.492a5.218,5.218,0,0,1,.772-.339,4.949,4.949,0,0,1,.808-.2c.132-.023.263-.04.395-.051s.263-.017.4-.017a4.574,4.574,0,0,1,2.969,1.06,3.547,3.547,0,0,1,1.3,2.908,4.853,4.853,0,0,1-1.14,3.112,4.083,4.083,0,0,1-3.382,1.416,3.946,3.946,0,0,1-3.3-1.365,4.961,4.961,0,0,1-1.076-3.163v-7.494Z" transform="translate(-41.602 -176.718)" fill="#419e43"/><path d="M286.51,443.186a2.118,2.118,0,0,0-.61-1.45,2.915,2.915,0,0,0-2.208-.669,3.038,3.038,0,0,0-1.2.271,3.074,3.074,0,0,0-1.068.822,2.633,2.633,0,0,0-.566,1.586,2.472,2.472,0,0,0,.8,2.018,3.267,3.267,0,0,0,1.768.763c.06,0,.127,0,.2.008s.137.009.2.009a2.366,2.366,0,0,0,.772-.118,2.544,2.544,0,0,0,.664-.357c.108-.079.222-.17.341-.271s.239-.209.359-.322v1.865c-.012.012-.021.02-.026.026a.03.03,0,0,0-.009.025,4.359,4.359,0,0,1-.933.441,4.731,4.731,0,0,1-1.435.169h-.234a3.823,3.823,0,0,1-2.827-1.161,4.155,4.155,0,0,1-1.193-3.095,4.1,4.1,0,0,1,1.148-2.925,4.433,4.433,0,0,1,3.373-1.213,4.533,4.533,0,0,1,3.266,1.086,3.262,3.262,0,0,1,1.131,2.39v4.781h-1.7Z" transform="translate(-56.165 -181.862)" fill="#419e43"/><rect width="1.687" height="11.886" transform="translate(233.737 254.118)" fill="#419e43"/><path d="M325.8,431.7a1.537,1.537,0,0,1,.5-1.11,1.571,1.571,0,0,1,.987-.4h.09a1.63,1.63,0,0,1,.9.374,1.944,1.944,0,0,1,.628,1.017l2.548,8,2.4-7.885a2.036,2.036,0,0,1,.6-1.093,1.608,1.608,0,0,1,.871-.416.321.321,0,0,1,.089-.017h.072a1.543,1.543,0,0,1,.978.348,1.28,1.28,0,0,1,.493.924l1.418,10.8h-1.848L335.4,432.5l-2.817,8.952a1.091,1.091,0,0,1-.422.679,1.25,1.25,0,0,1-.673.238h-.072a1.155,1.155,0,0,1-.673-.177.966.966,0,0,1-.421-.586l-2.978-9.105-1.131,9.75h-1.83Z" transform="translate(-83.017 -176.243)" fill="#419e43"/><path d="M366.764,441.865a.787.787,0,0,1-.144-.136,2.447,2.447,0,0,0-.179-.186,2.243,2.243,0,0,0-.539-.322,2.439,2.439,0,0,0-.968-.153,2.52,2.52,0,0,0-2.108.924,3.2,3.2,0,0,0-.728,2.026v.051a2.714,2.714,0,0,0,.745,1.8,2.657,2.657,0,0,0,2.091.814,2.392,2.392,0,0,0,1.974-.653,5.3,5.3,0,0,0,.825-1.823.03.03,0,0,1,.009-.024.035.035,0,0,0,.009-.026l1.561.1a1.7,1.7,0,0,1,.027.178c.006.062.009.122.009.178a2.56,2.56,0,0,1-.072.577,3.476,3.476,0,0,1-.216.627,4.439,4.439,0,0,1-1.453,1.594,4.508,4.508,0,0,1-2.674.729,4.664,4.664,0,0,1-3.212-1.161,3.781,3.781,0,0,1-1.311-2.959,3.907,3.907,0,0,1,1.076-2.942,5.056,5.056,0,0,1,2.369-1.348c.179-.034.359-.062.539-.085a4.39,4.39,0,0,1,.538-.034,4.178,4.178,0,0,1,2.548.78,6.026,6.026,0,0,1,1.687,1.882l-5.94,3.052-.7-1.187Z" transform="translate(-104.478 -181.862)" fill="#419e43"/><path d="M393.973,430.972v7.681a.145.145,0,0,0,.018.068v.119a3.959,3.959,0,0,1-.1.805,4.344,4.344,0,0,1-1.642,2.6,3.7,3.7,0,0,1-2.44.746h-.215a4.42,4.42,0,0,1-3.149-1.136,4.184,4.184,0,0,1-1.175-2.306,2.041,2.041,0,0,1-.044-.34c-.007-.112-.01-.226-.01-.339v-.238a3.544,3.544,0,0,1,.852-2.551,4.525,4.525,0,0,1,1.894-1.28,3.967,3.967,0,0,1,.609-.153,3.634,3.634,0,0,1,.593-.051,6.4,6.4,0,0,1,1.7.161,3.561,3.561,0,0,1,.852.364v1.595c-.048-.023-.108-.054-.18-.095a2.4,2.4,0,0,0-.233-.11,6.268,6.268,0,0,0-.907-.313,4.122,4.122,0,0,0-1.085-.144h-.142a.674.674,0,0,0-.144.017,2.673,2.673,0,0,0-1.552.788,2.544,2.544,0,0,0-.727,1.874v.068a.14.14,0,0,0,.018.068v.136a2.783,2.783,0,0,0,.682,1.67,2.634,2.634,0,0,0,1.166.7,2.661,2.661,0,0,0,.592.127c.191.017.37.025.538.025a2.052,2.052,0,0,0,1.956-1.035,4.952,4.952,0,0,0,.574-2.441v-7.088Z" transform="translate(-119.252 -176.718)" fill="#419e43"/><path d="M412.945,435.855h1.561v8.139h-1.561Zm-.126-1.882a.744.744,0,0,1,.3-.645,1.114,1.114,0,0,1,.664-.22,1.064,1.064,0,0,1,.691.212.878.878,0,0,1,.009,1.339,1.084,1.084,0,0,1-.663.229,1.066,1.066,0,0,1-.691-.212.8.8,0,0,1-.314-.687Z" transform="translate(-135.693 -177.99)" fill="#419e43"/><path d="M422.935,444.24a3.373,3.373,0,0,1,.081-.686,3.655,3.655,0,0,1,.26-.772,4.685,4.685,0,0,1,1.372-1.738,3.876,3.876,0,0,1,2.539-.789l1.687-.017V441.7H427.6c-.156.011-.329.031-.52.059a3.138,3.138,0,0,0-.575.144,3.032,3.032,0,0,0-1.184.772,2.176,2.176,0,0,0-.538,1.586,3.148,3.148,0,0,0,.026.389,2.382,2.382,0,0,0,.1.424,2.681,2.681,0,0,0,.771,1.178,2.363,2.363,0,0,0,1.669.534h.252l1.274-.017v1.475h-1.83a3.99,3.99,0,0,1-2.556-.831,4.356,4.356,0,0,1-1.266-1.7,4.92,4.92,0,0,1-.216-.763,3.7,3.7,0,0,1-.072-.695Z" transform="translate(-141.719 -182.237)" fill="#419e43"/><path d="M446.923,443.186a2.117,2.117,0,0,0-.611-1.45,2.915,2.915,0,0,0-2.207-.669,3.04,3.04,0,0,0-1.2.271,3.072,3.072,0,0,0-1.068.822,2.628,2.628,0,0,0-.566,1.586,2.469,2.469,0,0,0,.8,2.018,3.261,3.261,0,0,0,1.767.763c.06,0,.126,0,.2.008s.138.009.2.009a2.359,2.359,0,0,0,.771-.118,2.562,2.562,0,0,0,.664-.357c.108-.079.222-.17.341-.271s.239-.209.359-.322v1.865l-.027.026a.031.031,0,0,0-.009.025,4.359,4.359,0,0,1-.933.441,4.728,4.728,0,0,1-1.436.169h-.233a3.823,3.823,0,0,1-2.827-1.161,4.155,4.155,0,0,1-1.193-3.095,4.1,4.1,0,0,1,1.148-2.925,4.431,4.431,0,0,1,3.373-1.213,4.536,4.536,0,0,1,3.267,1.086,3.263,3.263,0,0,1,1.13,2.39v4.781h-1.7Z" transform="translate(-151.71 -181.862)" fill="#419e43"/><rect width="1.686" height="11.886" transform="translate(298.604 254.118)" fill="#419e43"/><path d="M490.378,441.048a2.476,2.476,0,0,0,1.355-.3,1.353,1.353,0,0,0,.619-1.009,1.665,1.665,0,0,0-.431-1.111,3.722,3.722,0,0,0-1.273-.89l-.288-.135-.287-.136a.085.085,0,0,1-.036-.008.149.149,0,0,1-.036-.025,22.267,22.267,0,0,1-2.755-1.5A2.463,2.463,0,0,1,486,433.774v-.187a2.441,2.441,0,0,1,.781-1.958,3.885,3.885,0,0,1,1.732-.873c.1-.022.195-.042.3-.059s.2-.031.3-.042l4.379-.017v1.475h-4.091a1.7,1.7,0,0,0-1.176.416,1.422,1.422,0,0,0-.475.89.154.154,0,0,0-.018.076v.093a1.184,1.184,0,0,0,.135.552.883.883,0,0,0,.4.4,13.505,13.505,0,0,0,1.525.882l1.328.645c.107.057.218.113.332.17s.224.113.331.169q.126.069.252.144t.269.161a4.895,4.895,0,0,1,1.193,1.085,2.586,2.586,0,0,1,.548,1.679c0,.159-.008.331-.027.517a3.984,3.984,0,0,1-.1.568,2.8,2.8,0,0,1-.871,1.357,3.264,3.264,0,0,1-2.216.61h-4.971v-1.475Z" transform="translate(-179.196 -176.518)" fill="#419e43"/><path d="M510.592,443.4a3.88,3.88,0,0,0,.027.448c.019.153.046.308.081.467a3.062,3.062,0,0,0,.771,1.4,2.366,2.366,0,0,0,1.813.636,3.226,3.226,0,0,0,1.992-.619,2.741,2.741,0,0,0,.825-2.314,2.636,2.636,0,0,0-.718-1.933,2.818,2.818,0,0,0-2.1-.729,2.442,2.442,0,0,0-1.884.661,2.884,2.884,0,0,0-.754,1.457,1.459,1.459,0,0,0-.045.272c-.007.09-.009.181-.009.271Zm-1.7,0a3.683,3.683,0,0,1,1.355-3.01,4.672,4.672,0,0,1,3.041-1.11c.108,0,.222,0,.341.008s.233.014.341.025A5.1,5.1,0,0,1,516.6,440.5a3.744,3.744,0,0,1,1.2,3.051,4.1,4.1,0,0,1-.036.526,4.482,4.482,0,0,1-.107.543,4.78,4.78,0,0,1-1.347,2.2,3.8,3.8,0,0,1-2.763.992,4.438,4.438,0,0,1-3.553-1.3,4.6,4.6,0,0,1-1.112-3.094Z" transform="translate(-192.914 -181.663)" fill="#419e43"/><rect width="1.687" height="11.886" transform="translate(326.579 254.118)" fill="#419e43"/><path d="M545.727,439.9v4.934a1.92,1.92,0,0,0,.582,1.466,2.136,2.136,0,0,0,1.535.552,1.673,1.673,0,0,0,1.256-.5,2.5,2.5,0,0,0,.646-1.111,2.21,2.21,0,0,0,.054-.262,1.85,1.85,0,0,0,.018-.263V439.9h1.562v4.747a.137.137,0,0,0,.018.068v.136a3.424,3.424,0,0,1-.969,2.433,3.387,3.387,0,0,1-2.584,1.026,4,4,0,0,1-2.629-.865,3.515,3.515,0,0,1-1.05-2.866V439.9Z" transform="translate(-213.926 -182.037)" fill="#419e43"/><path d="M567.24,442.432v-7.478h1.687v2h3.266v1.458h-3.266v4.137a1.877,1.877,0,0,0,.144.755q.143.33.987.33l1.992-.017v1.475h-2.181a.152.152,0,0,0-.063.017h-.126a2.131,2.131,0,0,1-1.785-.721,2.93,2.93,0,0,1-.637-1.6.83.83,0,0,1-.018-.169v-.187Z" transform="translate(-227.67 -179.09)" fill="#419e43"/><path d="M583.118,435.855h1.561v8.139h-1.561Zm-.126-1.882a.744.744,0,0,1,.306-.645,1.112,1.112,0,0,1,.663-.22,1.065,1.065,0,0,1,.691.212.879.879,0,0,1,.009,1.339,1.084,1.084,0,0,1-.664.229,1.064,1.064,0,0,1-.691-.212.794.794,0,0,1-.315-.687Z" transform="translate(-237.052 -177.99)" fill="#419e43"/><path d="M594.459,443.4a3.755,3.755,0,0,0,.027.448,4.5,4.5,0,0,0,.081.467,3.072,3.072,0,0,0,.771,1.4,2.367,2.367,0,0,0,1.813.636,3.225,3.225,0,0,0,1.991-.619,2.739,2.739,0,0,0,.826-2.314,2.635,2.635,0,0,0-.718-1.933,2.818,2.818,0,0,0-2.1-.729,2.444,2.444,0,0,0-1.885.661,2.877,2.877,0,0,0-.753,1.457,1.474,1.474,0,0,0-.046.272c-.006.09-.009.181-.009.271Zm-1.7,0a3.684,3.684,0,0,1,1.354-3.01,4.675,4.675,0,0,1,3.042-1.11c.107,0,.222,0,.341.008s.233.014.341.025a5.1,5.1,0,0,1,2.638,1.187,3.743,3.743,0,0,1,1.2,3.051,4.013,4.013,0,0,1-.036.526,4.333,4.333,0,0,1-.107.543,4.781,4.781,0,0,1-1.346,2.2,3.8,3.8,0,0,1-2.764.992,4.437,4.437,0,0,1-3.553-1.3,4.6,4.6,0,0,1-1.112-3.094Z" transform="translate(-242.867 -181.663)" fill="#419e43"/><path d="M618.625,442.733a3.353,3.353,0,0,1,1.014-2.424,3.75,3.75,0,0,1,2.808-1.034,4.367,4.367,0,0,1,.692.068,4.533,4.533,0,0,1,.816.221,4.027,4.027,0,0,1,1.391.967,2.6,2.6,0,0,1,.636,1.881v5.257h-1.7v-4.8a2.521,2.521,0,0,0-.458-1.45,1.7,1.7,0,0,0-1.517-.669,1.867,1.867,0,0,0-1.48.6,2.6,2.6,0,0,0-.636,1.4v4.917h-1.561Z" transform="translate(-258.275 -181.663)" fill="#419e43"/><path d="M643.275,446.567a.622.622,0,0,0,.144.017h.144a.625.625,0,0,0,.143.018h.143a2.417,2.417,0,0,0,.78-.12.522.522,0,0,0,.351-.56.828.828,0,0,0-.538-.746,7.151,7.151,0,0,0-1.383-.492c-.144-.034-.293-.07-.448-.11s-.311-.082-.466-.127a4.721,4.721,0,0,1-1.84-.848,1.878,1.878,0,0,1-.691-1.543,1.656,1.656,0,0,1,1-1.772,7.007,7.007,0,0,1,2.386-.364l3.248-.017v1.322h-3.392a4.324,4.324,0,0,0-1.1.153.544.544,0,0,0-.457.542.75.75,0,0,0,.466.7,5.208,5.208,0,0,0,1.041.389l.323.068.3.068q.107.035.215.059a1.688,1.688,0,0,1,.2.059,5.73,5.73,0,0,1,2.207,1.077,2.093,2.093,0,0,1,.611,1.585,1.92,1.92,0,0,1-.655,1.543,2.89,2.89,0,0,1-1.319.543,4.551,4.551,0,0,1-.458.042c-.15.006-.29.008-.421.008h-.359a.914.914,0,0,0-.17-.017h-3.67v-1.475Z" transform="translate(-270.777 -182.037)" fill="#419e43"/><path d="M336.164,182.437a32.9,32.9,0,0,0,65.755.484H380.461a1.157,1.157,0,0,1-1.154-1.08L377.273,151.4,373.3,202.07a1.158,1.158,0,0,1-1.143,1.066h-.011a1.157,1.157,0,0,1-1.152-1.045l-3.166-32.613-2.678,12.052a1.157,1.157,0,0,1-1.129.906Zm32.885,34.241a34.915,34.915,0,1,1,0-69.828v2.313a32.8,32.8,0,0,0-32.85,30.96H363.09l4.055-18.245a1.157,1.157,0,0,1,2.281.139l2.6,26.735,4.192-53.41a1.158,1.158,0,0,1,1.154-1.066h.006a1.156,1.156,0,0,1,1.147,1.08l3.024,45.252H403.1a1.156,1.156,0,0,1,1.157,1.156,35.1,35.1,0,0,1-35.2,34.914" transform="translate(-88.654)" fill="#419e43"/></g></svg>